<?xml version="1.0" standalone="no"?>
<!DOCTYPE svg PUBLIC "-//W3C//DTD SVG 20010904//EN"
 "http://www.w3.org/TR/2001/REC-SVG-20010904/DTD/svg10.dtd">
<svg version="1.0" xmlns="http://www.w3.org/2000/svg"
 width="3573.000000pt" height="582.000000pt" viewBox="0 0 3573.000000 582.000000"
 preserveAspectRatio="xMidYMid meet">

<g transform="translate(0.000000,582.000000) scale(0.100000,-0.100000)"
fill="#000000" stroke="none">
<path d="M4138 5468 c-3 -29 -7 -33 -35 -36 -29 -3 -33 -7 -33 -33 0 -27 -3
-29 -35 -29 -33 0 -35 -2 -35 -35 0 -33 -2 -35 -35 -35 -33 0 -35 -2 -35 -35
0 -33 -2 -35 -35 -35 -33 0 -35 -2 -35 -35 0 -33 -2 -35 -35 -35 -33 0 -35 -2
-35 -35 0 -33 -2 -35 -35 -35 -33 0 -35 -2 -35 -35 0 -33 -2 -35 -35 -35 -33
0 -35 -2 -35 -35 0 -33 -2 -35 -35 -35 -32 0 -35 -2 -35 -30 0 -28 -3 -30 -35
-30 -33 0 -35 -2 -35 -35 0 -33 -2 -35 -35 -35 -33 0 -35 -2 -35 -35 0 -33 -2
-35 -35 -35 -33 0 -35 -2 -35 -35 0 -33 -2 -35 -35 -35 -33 0 -35 -2 -35 -34
l0 -34 -65 -7 c-64 -6 -65 -7 -65 -36 0 -27 -3 -29 -35 -29 -33 0 -35 -2 -35
-35 0 -33 -2 -35 -35 -35 -33 0 -35 -2 -35 -35 0 -33 -2 -35 -35 -35 -33 0
-35 -2 -35 -35 0 -33 -2 -35 -35 -35 -33 0 -35 -2 -35 -35 0 -33 -2 -35 -35
-35 -33 0 -35 -2 -35 -35 0 -33 -2 -35 -35 -35 -32 0 -35 -2 -35 -29 0 -26 -4
-30 -32 -33 -29 -3 -33 -7 -36 -35 -3 -30 -6 -33 -38 -33 -32 0 -34 -2 -34
-35 0 -33 -2 -35 -35 -35 -33 0 -35 -2 -35 -35 0 -33 -2 -35 -35 -35 -33 0
-35 -2 -35 -35 0 -33 -2 -35 -35 -35 -33 0 -35 -2 -35 -35 l0 -35 -65 0 -65 0
0 -35 c0 -33 -2 -35 -35 -35 -33 0 -35 -2 -35 -35 0 -33 -2 -35 -35 -35 -33 0
-35 -2 -35 -35 0 -33 -2 -35 -35 -35 -33 0 -35 -2 -35 -35 0 -32 -2 -35 -29
-35 -26 0 -30 -4 -33 -32 -3 -30 -6 -33 -40 -36 -34 -3 -38 -6 -38 -32 0 -25
-4 -29 -32 -32 -29 -3 -33 -7 -36 -35 -3 -29 -7 -33 -33 -33 -27 0 -29 -3 -29
-35 0 -33 -2 -35 -35 -35 -33 0 -35 -2 -35 -35 0 -33 -2 -35 -35 -35 -33 0
-35 -2 -35 -35 0 -33 -2 -35 -35 -35 -33 0 -35 -2 -35 -35 0 -33 -2 -35 -35
-35 -32 0 -35 -2 -35 -29 0 -26 -4 -30 -32 -33 -29 -3 -33 -7 -36 -35 -3 -31
-4 -32 -67 -38 -63 -7 -64 -8 -67 -39 -3 -27 -7 -31 -35 -34 -28 -3 -32 -7
-35 -35 -3 -28 -7 -32 -35 -35 -28 -3 -32 -7 -35 -35 -3 -28 -7 -32 -35 -35
-29 -3 -33 -7 -33 -33 0 -27 -3 -29 -35 -29 -33 0 -35 -2 -35 -35 0 -33 -2
-35 -35 -35 -33 0 -35 -2 -35 -35 0 -33 -2 -35 -35 -35 -33 0 -35 -2 -35 -35
0 -33 -2 -35 -35 -35 -33 0 -35 -2 -35 -35 0 -33 -2 -35 -35 -35 -33 0 -35 -2
-35 -35 0 -33 -2 -35 -35 -35 -32 0 -35 -2 -35 -29 0 -26 -4 -30 -32 -33 -29
-3 -33 -7 -36 -35 -3 -28 -7 -32 -35 -35 -28 -3 -32 -7 -35 -35 -3 -31 -4 -32
-68 -38 l-64 -7 0 -34 c0 -32 -2 -34 -34 -34 -32 0 -35 -3 -38 -32 -3 -29 -7
-33 -35 -36 -29 -3 -33 -7 -33 -33 0 -27 -3 -29 -35 -29 -33 0 -35 -2 -35 -35
0 -33 -2 -35 -35 -35 -33 0 -35 -2 -35 -35 0 -33 -2 -35 -35 -35 l-35 0 0 -70
0 -70 690 0 690 0 0 35 c0 33 2 35 35 35 33 0 35 2 35 35 0 33 2 35 35 35 33
0 35 2 35 35 0 33 2 35 35 35 33 0 35 2 35 35 0 33 2 35 35 35 32 0 35 2 35
29 0 26 4 30 33 33 28 3 32 7 35 35 3 28 7 32 35 35 28 3 32 7 35 35 3 31 4
32 67 38 63 7 64 8 67 39 3 27 7 31 35 34 28 3 32 7 35 35 3 28 7 32 36 35 28
3 32 7 32 33 0 27 3 29 35 29 33 0 35 2 35 35 0 33 2 35 35 35 33 0 35 2 35
35 0 33 2 35 35 35 33 0 35 2 35 35 0 33 2 35 35 35 33 0 35 2 35 35 0 33 2
35 35 35 33 0 35 2 35 35 0 33 2 35 35 35 32 0 35 2 35 29 0 26 4 30 33 33 28
3 32 7 35 35 3 28 7 32 35 35 28 3 32 7 35 35 3 28 7 32 35 35 28 3 32 7 35
35 3 28 7 32 35 35 28 3 32 7 35 36 3 28 7 32 33 32 27 0 29 3 29 35 l0 35 70
0 70 0 0 35 c0 32 2 35 30 35 28 0 30 3 30 35 0 33 2 35 34 35 32 0 35 3 38
33 3 29 6 32 41 35 36 3 37 3 37 -32 0 -34 -2 -36 -34 -36 l-34 0 -7 -70 c-7
-69 -7 -70 -36 -70 l-29 0 0 -70 0 -70 -35 0 -35 0 0 -54 c0 -29 -3 -74 -6
-100 -6 -43 -9 -46 -35 -46 l-29 0 0 -70 0 -70 -35 0 -35 0 0 -70 0 -70 -29 0
c-27 0 -29 -3 -35 -52 -3 -29 -6 -74 -6 -100 0 -45 -1 -47 -32 -50 l-33 -3 -3
-67 -3 -67 -32 -3 -32 -3 -3 -67 c-3 -67 -3 -68 -31 -68 -28 0 -29 -1 -36 -70
-7 -69 -7 -70 -36 -70 -28 0 -29 -1 -29 -52 0 -29 -3 -77 -6 -105 -6 -50 -8
-53 -35 -53 l-29 0 0 -240 0 -240 29 0 c29 0 29 -1 36 -70 7 -69 7 -70 36 -70
26 0 29 -3 29 -35 0 -33 2 -35 34 -35 l34 0 7 -64 6 -65 65 -6 c62 -7 64 -8
64 -35 0 -27 2 -28 70 -35 68 -7 70 -8 70 -35 l0 -28 123 -4 c67 -2 175 -2
240 0 l117 4 0 28 c0 27 2 28 70 35 68 7 70 8 70 35 0 27 2 28 70 35 69 7 70
8 70 35 0 25 4 29 33 32 28 3 32 7 35 35 3 28 7 32 35 35 28 3 32 7 35 35 3
29 7 33 32 33 25 0 29 4 32 33 3 29 6 32 41 35 35 3 37 5 37 38 0 32 2 34 35
34 33 0 35 2 35 35 0 33 2 35 35 35 32 0 35 2 35 29 0 26 4 30 33 33 28 3 32
7 35 36 3 28 7 32 33 32 27 0 29 3 29 35 0 33 2 35 35 35 33 0 35 2 35 35 0
33 2 35 35 35 33 0 35 2 35 34 l0 34 65 7 c64 6 65 7 65 36 0 27 3 29 35 29
33 0 35 2 35 35 0 33 2 35 35 35 33 0 35 2 35 35 0 33 2 35 35 35 33 0 35 2
35 35 0 33 2 35 35 35 33 0 35 2 35 35 0 33 2 35 35 35 33 0 35 2 35 35 0 33
2 35 35 35 32 0 35 2 35 30 0 28 3 30 35 30 33 0 35 2 35 35 0 33 2 35 35 35
33 0 35 2 35 35 0 33 2 35 35 35 33 0 35 2 35 35 0 33 2 35 35 35 33 0 35 2
35 35 0 33 2 35 35 35 33 0 35 2 35 35 l0 35 65 0 65 0 0 35 c0 33 2 35 35 35
33 0 35 2 35 35 0 33 2 35 35 35 33 0 35 -2 35 -35 0 -32 -3 -35 -29 -35 -27
0 -29 -3 -35 -52 -3 -29 -6 -77 -6 -105 0 -52 -1 -53 -29 -53 -27 0 -29 -3
-35 -53 -3 -28 -6 -89 -6 -134 l0 -83 -29 0 -29 0 -7 -140 -7 -140 -29 0 -29
0 0 -140 0 -140 30 0 30 0 0 -82 c0 -46 3 -107 6 -135 6 -50 9 -53 34 -53 27
0 28 -2 35 -70 7 -69 8 -70 35 -70 25 0 29 -4 32 -33 3 -28 7 -32 35 -35 28
-3 32 -7 35 -35 3 -28 7 -32 35 -35 28 -3 32 -7 35 -35 l3 -32 68 -3 67 -3 0
-34 0 -35 70 0 70 0 0 -29 0 -29 139 -7 c77 -4 200 -4 275 0 l136 7 0 29 c0
28 1 28 68 31 l67 3 3 33 3 32 65 0 64 0 0 35 c0 33 2 35 35 35 33 0 35 2 35
35 0 33 2 35 35 35 33 0 35 2 35 35 0 33 2 35 35 35 33 0 35 2 35 35 0 33 2
35 35 35 33 0 35 2 35 35 0 33 2 35 35 35 32 0 35 2 35 30 0 28 3 30 35 30 33
0 35 2 35 34 l0 34 64 7 65 6 6 65 7 64 34 0 c32 0 34 2 34 34 l0 34 64 7 c64
6 65 7 68 38 3 28 7 32 36 35 28 3 32 7 32 33 0 27 3 29 35 29 33 0 35 2 35
35 0 33 2 35 35 35 33 0 35 2 35 35 0 33 2 35 35 35 33 0 35 2 35 35 l0 35 70
0 70 0 0 -35 c0 -33 2 -35 35 -35 33 0 35 -2 35 -35 0 -33 2 -35 35 -35 33 0
35 -2 35 -35 l0 -35 655 0 655 0 0 70 0 70 -35 0 c-33 0 -35 2 -35 35 0 33 -2
35 -35 35 -33 0 -35 2 -35 35 0 33 -2 35 -35 35 -33 0 -35 2 -35 35 0 33 -2
35 -35 35 -33 0 -35 2 -35 35 0 33 -2 35 -35 35 -32 0 -35 2 -35 29 0 26 -4
30 -32 33 -29 3 -33 7 -36 35 -3 28 -7 32 -35 35 -28 3 -32 7 -35 35 -3 28 -7
32 -35 35 -28 3 -32 7 -35 35 -3 28 -7 32 -35 35 -28 3 -32 7 -35 36 -3 29 -6
32 -38 32 -32 0 -34 2 -34 35 0 33 -2 35 -35 35 -32 0 -35 2 -35 30 0 27 -3
30 -30 30 -27 0 -30 3 -30 34 l0 34 -64 7 c-64 6 -65 7 -68 38 -3 29 -6 32
-40 35 -36 3 -38 5 -38 38 0 31 -3 34 -29 34 -26 0 -30 4 -33 33 -3 28 -7 32
-35 35 -29 3 -33 7 -33 31 0 28 -2 29 -70 35 -69 7 -70 8 -70 37 l0 29 -239 0
-240 0 -3 -32 -3 -33 -67 -3 -67 -3 -3 -32 c-3 -28 -7 -32 -35 -35 -28 -3 -32
-7 -35 -35 -3 -28 -7 -32 -35 -35 -28 -3 -32 -7 -35 -35 -3 -28 -7 -32 -35
-35 -29 -3 -33 -7 -33 -33 0 -27 -3 -29 -35 -29 -33 0 -35 -2 -35 -35 0 -33
-2 -35 -35 -35 -33 0 -35 -2 -35 -35 0 -33 -2 -35 -35 -35 -33 0 -35 -2 -35
-35 0 -33 -2 -35 -35 -35 -33 0 -35 -2 -35 -35 0 -33 -2 -35 -35 -35 -32 0
-35 -2 -35 -29 0 -26 -4 -30 -32 -33 -29 -3 -33 -7 -36 -35 -3 -28 -7 -32 -35
-35 -28 -3 -32 -7 -35 -35 -3 -28 -7 -32 -35 -35 -28 -3 -32 -7 -35 -35 -3
-31 -4 -32 -68 -38 l-64 -7 0 -34 c0 -32 -2 -34 -35 -34 -32 0 -35 -2 -35 -30
0 -28 -3 -30 -35 -30 l-35 0 0 99 0 100 33 3 32 3 3 137 3 138 34 0 35 0 0
134 0 135 33 3 32 3 3 108 3 107 28 0 c27 0 29 3 35 53 3 28 6 89 6 135 l0 82
29 0 29 0 7 140 7 140 29 0 c29 0 29 0 29 63 0 35 3 112 7 170 l6 107 27 0
c27 0 27 0 33 93 3 50 3 113 0 140 l-6 47 -221 0 c-121 0 -292 -3 -378 -7
l-158 -6 0 -29 0 -28 -89 0 c-48 0 -109 -3 -135 -6 -43 -6 -46 -9 -46 -35 l0
-29 -70 0 -70 0 0 -35 0 -35 -70 0 -70 0 0 -35 0 -35 -70 0 -70 0 0 -35 c0
-33 -2 -35 -35 -35 -32 0 -35 -2 -35 -29 0 -29 -1 -30 -65 -36 l-65 -7 0 -34
c0 -32 -2 -34 -34 -34 -32 0 -35 -3 -38 -32 -3 -29 -7 -33 -35 -36 -29 -3 -33
-7 -33 -33 0 -27 -3 -29 -35 -29 -33 0 -35 -2 -35 -35 0 -33 -2 -35 -35 -35
-33 0 -35 -2 -35 -35 0 -33 -2 -35 -35 -35 -33 0 -35 -2 -35 -35 0 -33 -2 -35
-35 -35 -33 0 -35 -2 -35 -35 0 -33 -2 -35 -35 -35 -33 0 -35 -2 -35 -35 0
-33 -2 -35 -35 -35 -32 0 -35 -2 -35 -29 0 -29 -1 -30 -65 -36 l-65 -7 0 -34
c0 -32 -2 -34 -35 -34 -33 0 -35 -2 -35 -35 0 -33 -2 -35 -35 -35 -33 0 -35
-2 -35 -35 0 -33 -2 -35 -35 -35 -33 0 -35 -2 -35 -35 0 -33 -2 -35 -35 -35
-32 0 -35 -2 -35 -29 0 -26 -4 -30 -32 -33 -29 -3 -33 -7 -36 -35 -3 -30 -6
-33 -38 -33 -32 0 -34 -2 -34 -35 0 -33 -2 -35 -35 -35 -33 0 -35 -2 -35 -35
0 -33 -2 -35 -35 -35 -33 0 -35 -2 -35 -35 0 -33 -2 -35 -35 -35 -33 0 -35 -2
-35 -35 0 -33 -2 -35 -35 -35 -32 0 -35 -2 -35 -30 0 -27 -3 -30 -30 -30 l-30
0 0 65 0 65 35 0 c33 0 35 2 35 35 0 33 2 35 35 35 33 0 35 2 35 35 0 32 3 35
29 35 29 0 29 1 36 70 7 69 8 70 36 70 28 0 28 1 31 68 l3 67 33 3 c32 3 32 4
32 56 0 29 3 74 6 100 6 43 9 46 35 46 l29 0 0 70 0 70 35 0 35 0 0 54 c0 29
3 74 6 100 6 43 9 46 35 46 l29 0 0 69 0 70 33 3 32 3 3 68 c3 66 3 67 31 67
28 0 29 1 36 70 7 68 8 70 35 70 25 0 28 3 34 53 3 28 6 73 6 99 0 45 1 47 33
50 l32 3 3 73 c3 72 3 72 31 72 28 0 29 1 36 70 7 69 7 70 36 70 28 0 29 2 29
48 0 26 3 71 6 100 6 49 8 52 35 52 l29 0 0 70 0 70 35 0 35 0 0 70 0 70 35 0
35 0 0 70 0 70 35 0 35 0 0 100 0 100 35 0 35 0 0 70 0 70 29 0 c29 0 30 1 37
70 6 68 7 70 34 70 25 0 28 4 34 53 3 28 6 73 6 100 l0 47 -549 0 -550 0 -3
-32z m-628 -1998 c0 -27 -3 -30 -30 -30 -27 0 -30 3 -30 30 0 27 3 30 30 30
27 0 30 -3 30 -30z m-140 -140 c0 -27 -3 -30 -30 -30 -27 0 -30 3 -30 30 0 27
3 30 30 30 27 0 30 -3 30 -30z m-70 -65 c0 -32 -2 -35 -30 -35 -28 0 -30 3
-30 35 0 32 2 35 30 35 28 0 30 -3 30 -35z m2420 -695 c0 -27 -3 -30 -30 -30
-27 0 -30 3 -30 30 0 27 3 30 30 30 27 0 30 -3 30 -30z m-70 -70 c0 -28 -3
-30 -35 -30 -32 0 -35 2 -35 30 0 28 3 30 35 30 32 0 35 -2 35 -30z m-1870
-340 c0 -27 -3 -30 -30 -30 -27 0 -30 3 -30 30 0 27 3 30 30 30 27 0 30 -3 30
-30z m2630 -345 c0 -33 -2 -35 -35 -35 -33 0 -35 -2 -35 -35 0 -33 -2 -35 -35
-35 -33 0 -35 2 -35 35 0 33 2 35 35 35 33 0 35 2 35 35 0 33 2 35 35 35 33 0
35 -2 35 -35z"/>
<path d="M12270 4441 c0 -26 -3 -29 -46 -35 -26 -3 -87 -6 -135 -6 l-89 0 0
-35 0 -35 -64 0 -65 0 -3 -32 c-3 -30 -6 -33 -40 -36 -34 -3 -38 -6 -38 -32 0
-28 -2 -29 -64 -35 -64 -7 -65 -8 -68 -39 -3 -27 -7 -31 -35 -34 -29 -3 -33
-7 -33 -33 0 -27 -3 -29 -35 -29 -33 0 -35 -2 -35 -35 0 -33 -2 -35 -34 -35
-33 0 -35 -2 -38 -37 -3 -35 -6 -38 -35 -41 l-33 -3 0 -65 0 -64 -35 0 -35 0
0 -70 0 -70 -35 0 -35 0 0 -70 0 -70 -29 0 c-27 0 -29 -3 -35 -52 -8 -69 -8
-802 0 -862 6 -43 9 -46 35 -46 28 0 29 -1 29 -52 0 -29 3 -77 6 -105 6 -50 8
-53 35 -53 29 0 29 0 29 -65 l0 -65 35 0 c34 0 35 -1 35 -40 0 -39 1 -40 35
-40 33 0 35 -2 35 -35 0 -33 2 -35 35 -35 33 0 35 -2 35 -35 0 -32 2 -35 29
-35 26 0 30 -4 33 -32 3 -29 7 -33 36 -36 28 -3 32 -7 32 -32 0 -26 4 -29 38
-32 34 -3 37 -6 40 -35 l3 -33 65 0 64 0 0 -34 0 -34 70 -7 c69 -7 70 -7 70
-36 l0 -29 70 0 70 0 0 -35 0 -35 275 0 275 0 0 -35 c0 -33 2 -35 35 -35 l35
0 0 -70 0 -70 35 0 35 0 0 -65 0 -65 29 0 c27 0 30 -3 33 -37 3 -36 5 -38 41
-41 34 -3 37 -6 37 -33 l0 -29 304 0 303 0 7 46 c12 89 10 94 -29 94 l-35 0 0
65 0 65 -35 0 -35 0 0 70 0 70 -35 0 c-33 0 -35 2 -35 34 0 32 -3 35 -32 38
l-33 3 -3 103 -3 102 36 0 c32 0 35 2 35 29 0 29 1 29 70 36 l70 7 0 34 c0 32
2 34 35 34 33 0 35 2 35 35 0 33 2 35 35 35 33 0 35 2 35 35 0 32 2 35 29 35
29 0 30 1 36 65 7 63 8 65 35 65 27 0 28 2 35 70 7 68 8 70 35 70 27 0 28 2
35 70 7 69 7 70 36 70 28 0 29 1 29 53 0 28 3 76 6 105 6 49 8 52 35 52 l29 0
0 339 0 340 -32 3 -33 3 -3 103 -3 102 -28 0 c-28 0 -29 1 -36 70 -7 68 -8 70
-35 70 -27 0 -28 2 -35 70 -7 69 -7 70 -36 70 -26 0 -29 3 -29 35 0 33 -2 35
-35 35 -33 0 -35 2 -35 35 0 33 -2 35 -35 35 -33 0 -35 2 -35 35 0 33 -2 35
-35 35 -33 0 -35 2 -35 35 0 33 -2 35 -35 35 -32 0 -35 2 -35 30 0 28 -3 30
-35 30 -33 0 -35 2 -35 35 l0 34 -67 3 -68 3 -3 33 -3 32 -65 0 -64 0 0 35 0
34 -107 3 -108 3 -3 33 -3 32 -310 0 -309 0 0 -29z m350 -561 l0 -29 138 -3
137 -3 3 -32 3 -33 65 0 64 0 0 -35 c0 -33 2 -35 35 -35 33 0 35 -2 35 -35 0
-33 2 -35 35 -35 33 0 35 -2 35 -35 0 -33 2 -35 35 -35 l35 0 0 -65 0 -65 35
0 35 0 0 -59 c0 -32 3 -79 6 -105 6 -43 9 -46 35 -46 l29 0 0 -210 0 -210 -29
0 c-26 0 -29 -3 -35 -46 -3 -26 -6 -73 -6 -105 0 -58 0 -59 -29 -59 -29 0 -30
-1 -36 -65 -7 -63 -8 -65 -36 -65 -26 0 -29 -3 -29 -35 0 -33 -2 -35 -35 -35
-33 0 -35 -2 -35 -35 0 -33 -2 -35 -35 -35 -33 0 -35 -2 -35 -35 0 -34 -1 -35
-40 -35 -37 0 -40 -2 -40 -29 0 -26 -3 -29 -46 -35 -26 -3 -71 -6 -100 -6 -53
0 -54 -1 -54 -29 0 -29 -1 -29 -71 -36 -39 -4 -132 -4 -205 0 l-134 7 0 29 0
29 -70 0 -70 0 0 35 0 35 -70 0 -70 0 0 35 c0 33 -2 35 -35 35 -33 0 -35 2
-35 35 0 33 -2 35 -35 35 l-35 0 0 70 0 70 -35 0 -35 0 0 65 c0 65 0 65 -29
65 -27 0 -29 3 -35 53 -8 68 -8 516 0 585 6 49 8 52 35 52 l29 0 0 70 0 70 34
0 c33 0 35 2 38 38 3 34 6 37 36 40 29 3 32 6 32 38 0 32 2 34 35 34 32 0 35
2 35 30 0 28 3 30 35 30 33 0 35 2 35 35 l0 35 64 0 65 0 3 33 3 32 138 3 137
3 0 29 c0 28 3 30 35 30 32 0 35 -2 35 -30z"/>
<path d="M23110 4441 c0 -26 -3 -29 -46 -35 -26 -3 -87 -6 -135 -6 l-89 0 0
-35 0 -35 -70 0 -70 0 0 -35 c0 -33 -2 -35 -35 -35 -32 0 -35 -3 -35 -29 0
-29 -1 -29 -70 -36 l-70 -7 0 -34 c0 -32 -2 -34 -35 -34 -32 0 -35 -2 -35 -29
0 -26 -4 -30 -32 -33 -29 -3 -33 -7 -36 -35 -3 -29 -7 -33 -32 -33 -26 0 -29
-4 -32 -37 -3 -35 -6 -38 -35 -41 -31 -3 -32 -4 -38 -68 -7 -62 -8 -64 -35
-64 -27 0 -28 -2 -35 -70 -7 -69 -8 -70 -36 -70 -28 0 -28 -1 -31 -67 -3 -68
-3 -68 -34 -71 l-31 -3 -7 -239 c-4 -131 -4 -349 0 -484 l7 -246 27 0 c25 0
28 -4 34 -46 3 -26 6 -71 6 -100 l0 -54 35 0 35 0 0 -64 0 -65 33 -3 c29 -3
32 -6 35 -40 3 -34 6 -38 32 -38 25 0 29 -4 32 -32 3 -29 7 -33 36 -36 29 -3
32 -6 32 -38 0 -32 2 -34 34 -34 32 0 35 -3 38 -32 3 -29 7 -33 36 -36 28 -3
32 -7 32 -33 0 -27 3 -29 35 -29 33 0 35 -2 35 -34 l0 -34 65 -7 c64 -6 65 -7
65 -36 0 -27 2 -29 40 -29 39 0 40 -1 40 -35 l0 -35 105 0 105 0 0 -29 c0 -26
3 -29 46 -35 60 -8 793 -8 862 0 49 6 52 8 52 35 l0 29 70 0 70 0 0 310 0 310
-35 0 c-32 0 -35 -3 -35 -29 0 -27 -3 -29 -52 -35 -29 -3 -90 -6 -135 -6 l-83
0 0 -28 0 -29 -107 -6 c-133 -9 -263 -9 -330 -1 -50 6 -53 8 -53 35 0 28 -1
29 -54 29 -29 0 -74 3 -100 6 -43 6 -46 9 -46 35 0 27 -3 29 -40 29 -39 0 -40
1 -40 35 l0 35 -65 0 -65 0 0 35 c0 33 -2 35 -34 35 l-34 0 -7 65 c-6 63 -8
65 -35 65 -27 0 -28 2 -34 70 -7 69 -8 70 -37 70 l-29 0 0 344 0 345 33 3 32
3 3 67 3 67 32 3 c29 3 32 6 35 41 3 34 6 37 33 37 26 0 29 3 29 30 0 28 3 30
35 30 33 0 35 2 35 35 0 33 2 35 35 35 33 0 35 2 35 35 l0 35 70 0 70 0 0 35
0 35 140 0 140 0 0 30 0 30 70 0 70 0 0 -30 0 -30 170 0 170 0 0 -35 0 -35
105 0 105 0 0 275 0 275 -35 0 c-33 0 -35 2 -35 35 l0 35 -89 0 c-48 0 -109 3
-135 6 -43 6 -46 9 -46 35 l0 29 -315 0 -315 0 0 -29z"/>
<path d="M15240 3418 c0 -541 3 -1007 6 -1035 6 -50 8 -53 35 -53 28 0 29 -1
29 -52 0 -29 3 -77 6 -105 6 -50 9 -53 34 -53 27 0 28 -2 35 -65 6 -64 7 -65
36 -65 27 0 29 -3 29 -35 0 -33 2 -35 35 -35 33 0 35 -2 35 -35 0 -33 2 -35
35 -35 33 0 35 -2 35 -35 0 -33 2 -35 35 -35 33 0 35 -2 35 -35 l0 -35 65 0
65 0 0 -35 0 -35 75 0 75 0 0 -29 c0 -26 3 -29 46 -35 26 -3 210 -6 410 -6
l364 0 0 35 0 35 69 0 70 0 3 33 3 32 68 3 67 3 0 34 c0 33 2 35 35 35 33 0
35 2 35 35 0 33 2 35 35 35 32 0 35 2 35 29 0 26 4 30 33 33 29 3 32 6 35 41
3 33 6 37 32 37 28 0 29 2 35 65 7 63 8 65 35 65 27 0 28 2 35 70 7 69 7 70
36 70 l29 0 0 68 c0 38 3 117 7 175 l6 107 29 0 28 0 0 895 0 895 -310 0 -310
0 0 -895 0 -895 -29 0 c-27 0 -29 -3 -35 -52 -3 -29 -6 -77 -6 -105 0 -52 -1
-53 -29 -53 -29 0 -29 -1 -36 -70 l-7 -70 -34 0 c-31 0 -34 -3 -34 -29 0 -29
-1 -30 -70 -37 -68 -6 -70 -7 -70 -34 l0 -27 -99 -6 c-54 -4 -146 -4 -205 0
l-106 6 0 27 c0 27 -3 28 -65 35 -64 6 -65 7 -65 36 0 26 -3 29 -34 29 l-34 0
-7 70 c-7 68 -8 70 -35 70 -25 0 -28 3 -34 53 -3 28 -6 91 -6 140 l0 87 -30 0
-30 0 0 860 0 860 -280 0 -280 0 0 -982z"/>
<path d="M18970 2985 l0 -1415 894 0 893 0 7 53 c8 68 8 446 0 515 l-7 52
-567 0 c-312 0 -588 3 -614 6 l-46 7 0 233 0 234 30 0 c28 0 30 3 30 35 l0 35
468 0 c257 0 491 3 520 6 l52 7 0 267 0 267 -52 7 c-29 3 -263 6 -520 6 l-468
0 0 35 c0 32 -2 35 -30 35 l-30 0 0 234 0 233 46 7 c26 3 305 6 620 6 l574 0
0 275 0 275 -900 0 -900 0 0 -1415z"/>
<path d="M25460 2985 l0 -1415 310 0 310 0 0 585 0 585 549 0 548 0 7 -46 c3
-26 6 -273 6 -550 l0 -504 30 0 c28 0 30 -3 30 -35 l0 -35 274 0 273 0 7 53
c3 28 6 665 6 1415 l0 1362 -310 0 -310 0 0 -497 c0 -274 -3 -522 -6 -550 l-7
-53 -548 0 -549 0 0 550 0 550 -310 0 -310 0 0 -1415z"/>
<path d="M29260 3435 l0 -965 30 0 30 0 0 -82 c0 -46 3 -107 6 -135 6 -49 9
-53 34 -53 27 0 28 -2 34 -70 7 -69 8 -70 37 -70 27 0 29 -2 29 -40 0 -39 1
-40 35 -40 33 0 35 -2 35 -35 0 -33 2 -35 35 -35 33 0 35 -2 35 -35 0 -32 2
-35 30 -35 27 0 30 -3 30 -29 0 -27 3 -30 38 -33 33 -3 37 -6 40 -34 3 -31 4
-32 68 -39 63 -6 64 -7 64 -36 l0 -29 69 0 70 0 3 -33 3 -32 350 -3 c193 -2
378 0 413 3 60 6 62 7 62 36 l0 29 70 0 70 0 0 35 0 35 64 0 65 0 3 33 c3 29
6 32 41 35 35 3 37 5 37 38 0 32 2 34 35 34 33 0 35 2 35 35 0 32 2 35 29 35
26 0 30 4 33 33 3 28 7 32 35 35 31 3 31 4 38 73 7 68 7 69 36 69 28 0 29 2
29 48 0 26 3 71 6 100 6 49 8 52 35 52 l29 0 0 1035 0 1035 -310 0 -310 0 0
-1000 0 -1000 -35 0 -35 0 0 -64 0 -64 -64 -7 c-64 -7 -65 -8 -68 -39 l-3 -31
-67 -3 c-67 -3 -68 -3 -68 -31 0 -27 -3 -29 -52 -35 -68 -8 -178 -8 -245 0
-50 6 -53 8 -53 35 0 28 -1 28 -67 31 l-68 3 -3 32 c-3 28 -7 32 -35 35 -28 3
-32 7 -35 36 -3 28 -7 32 -31 32 -27 0 -29 3 -35 53 -3 28 -6 76 -6 105 0 51
0 52 -30 52 l-30 0 0 930 0 930 -310 0 -310 0 0 -965z"/>
<path d="M33670 4330 l0 -70 -35 0 -35 0 0 -70 0 -70 -29 0 c-26 0 -29 -3 -35
-46 -3 -26 -6 -71 -6 -100 0 -53 -1 -54 -29 -54 -29 0 -29 -1 -36 -70 -7 -68
-8 -70 -35 -70 -27 0 -28 -2 -35 -70 -7 -69 -7 -70 -36 -70 -28 0 -29 -1 -29
-54 0 -29 -3 -74 -6 -100 -6 -42 -9 -46 -34 -46 -27 0 -28 -2 -34 -70 -7 -69
-8 -70 -37 -70 l-29 0 0 -70 0 -70 -35 0 -35 0 0 -100 0 -100 -35 0 -35 0 0
-75 0 -75 -35 0 -35 0 0 -70 0 -70 -29 0 c-26 0 -29 -3 -35 -46 -3 -26 -6 -71
-6 -100 l0 -54 -35 0 -35 0 0 -70 0 -70 -29 0 c-29 0 -29 -1 -36 -70 -7 -68
-8 -70 -35 -70 -27 0 -28 -2 -35 -70 -7 -69 -7 -70 -36 -70 -28 0 -29 -2 -29
-47 0 -27 -3 -72 -6 -100 -6 -50 -8 -53 -35 -53 l-29 0 0 -70 0 -70 -35 0 -35
0 0 -70 0 -70 310 0 310 0 0 35 c0 32 3 35 29 35 26 0 29 3 35 46 3 26 6 73 6
105 l0 59 35 0 35 0 0 70 0 70 533 0 c292 0 555 -3 584 -6 l52 -7 3 -66 3 -66
33 -3 32 -3 0 -100 0 -99 35 0 c33 0 35 -2 35 -35 l0 -35 310 0 310 0 0 105 0
105 -35 0 -35 0 0 70 0 70 -35 0 -35 0 0 70 0 70 -35 0 -35 0 0 70 0 70 -29 0
c-26 0 -29 3 -35 46 -3 26 -6 71 -6 100 0 53 -1 54 -29 54 -29 0 -29 1 -36 70
-7 69 -7 70 -36 70 -28 0 -29 2 -29 48 0 26 -3 71 -6 100 -6 48 -9 52 -34 52
-27 0 -28 2 -34 70 -7 69 -8 70 -37 70 l-29 0 0 70 0 70 -35 0 -35 0 0 70 0
70 -35 0 -35 0 0 99 0 100 -32 3 -33 3 -3 67 -3 67 -32 3 -32 3 -3 103 -3 102
-34 0 -35 0 0 70 0 70 -29 0 c-29 0 -30 1 -37 70 -6 68 -7 70 -34 70 -27 0
-28 2 -35 70 -7 69 -8 70 -36 70 -28 0 -28 1 -31 68 l-3 67 -32 3 -33 3 0 65
0 64 -175 0 -175 0 0 -70z m208 -1032 c3 -67 3 -68 31 -68 27 0 29 -3 35 -52
3 -29 6 -77 6 -105 0 -52 1 -53 29 -53 29 0 29 -1 36 -70 7 -68 8 -70 35 -70
25 0 28 -3 34 -52 3 -29 6 -74 6 -100 0 -47 1 -48 30 -48 22 0 30 -5 30 -17 0
-10 3 -42 6 -70 l7 -53 -317 0 -316 0 0 48 c0 26 3 71 6 100 6 49 8 52 35 52
29 0 29 1 29 59 0 32 3 79 6 105 6 43 9 46 35 46 l29 0 0 70 0 70 35 0 35 0 0
54 c0 29 3 74 6 100 6 43 9 46 35 46 27 0 29 3 29 41 0 39 1 40 33 37 l32 -3
3 -67z"/>
</g>
</svg>
