<?xml version="1.0" standalone="no"?>
<!DOCTYPE svg PUBLIC "-//W3C//DTD SVG 20010904//EN"
 "http://www.w3.org/TR/2001/REC-SVG-20010904/DTD/svg10.dtd">
<svg version="1.0" xmlns="http://www.w3.org/2000/svg"
 width="1375.000000pt" height="300.000000pt" viewBox="0 0 1375.000000 300.000000"
 preserveAspectRatio="xMidYMid meet">

<g transform="translate(0.000000,300.000000) scale(0.100000,-0.100000)"
fill="#000000" stroke="none">
<path d="M1425 2227 c-160 -150 -516 -481 -790 -736 -275 -256 -501 -468 -503
-473 -2 -4 115 -8 260 -8 l263 1 120 112 c697 650 882 817 769 696 -22 -24
-81 -89 -130 -144 l-91 -100 -127 -295 c-88 -203 -130 -311 -133 -346 -22
-209 200 -363 390 -270 32 15 105 71 169 128 101 91 597 549 706 652 23 22 42
37 42 33 0 -3 -34 -47 -75 -96 l-74 -90 -36 -140 c-19 -77 -35 -165 -35 -195
0 -118 78 -239 188 -292 47 -23 71 -28 137 -28 120 -1 158 20 360 205 92 85
192 176 222 203 l54 49 43 -42 42 -41 252 0 c144 0 252 4 252 9 0 8 -366 356
-435 413 -74 62 -144 78 -228 54 -52 -15 -77 -36 -326 -266 -148 -138 -273
-250 -276 -250 -4 0 22 37 57 83 l64 82 92 365 c51 201 95 375 98 388 6 22 6
22 -122 22 -75 0 -158 -7 -199 -15 -87 -19 -213 -78 -285 -136 -44 -35 -304
-273 -659 -603 -60 -56 -42 -28 53 83 l81 94 251 576 c138 317 249 579 247
584 -2 4 -93 7 -201 6 l-197 0 -290 -272z"/>
<path d="M4985 2219 c-76 -11 -215 -54 -280 -86 -133 -67 -262 -189 -316 -298
-31 -65 -59 -175 -59 -240 0 -205 137 -408 350 -519 62 -32 215 -86 246 -86
11 0 14 21 14 114 l0 113 -57 21 c-119 44 -239 173 -262 282 -16 73 -14 109 9
184 17 53 33 79 80 130 106 113 241 165 425 166 153 0 270 -43 373 -136 207
-187 154 -475 -111 -599 -113 -53 -111 -53 -117 36 l-5 77 -122 -46 -123 -45
0 -209 c0 -158 3 -210 13 -212 11 -4 202 -71 235 -83 9 -4 12 20 12 101 l0
105 43 11 c188 49 313 113 412 214 114 115 165 236 165 389 0 93 -32 200 -84
280 -154 240 -513 383 -841 336z"/>
<path d="M9820 1605 l0 -585 140 0 140 0 0 256 c0 298 5 330 64 389 71 70 216
101 335 71 70 -18 109 -41 137 -83 17 -25 19 -56 24 -328 l5 -300 140 0 140 0
3 235 c4 376 -15 467 -117 563 -92 86 -218 128 -386 129 -122 0 -205 -23 -288
-81 l-57 -40 0 179 0 180 -140 0 -140 0 0 -585z"/>
<path d="M12840 1956 c-266 -57 -434 -222 -447 -440 -15 -233 138 -416 405
-488 92 -24 297 -28 377 -6 l50 13 3 119 c2 110 1 118 -15 113 -10 -3 -45 -16
-78 -28 -86 -30 -215 -24 -300 14 -277 128 -210 440 108 498 143 26 306 -43
375 -160 l27 -46 5 -270 5 -270 130 0 130 0 3 264 c3 296 -4 345 -61 440 -63
105 -194 196 -342 236 -83 22 -292 28 -375 11z"/>
<path d="M7760 1946 c-236 -50 -388 -193 -421 -396 -23 -138 21 -272 125 -376
176 -176 496 -217 741 -94 84 42 115 66 178 140 59 69 57 70 -108 70 -143 0
-145 0 -207 -32 -59 -31 -70 -33 -163 -33 -81 0 -109 4 -146 21 -75 35 -159
121 -159 164 0 7 136 10 429 10 l429 0 5 33 c9 59 -12 159 -48 234 -58 118
-174 208 -321 247 -83 23 -253 29 -334 12z m308 -210 c62 -29 132 -94 132
-123 0 -10 -57 -13 -295 -13 -276 0 -295 1 -295 18 0 24 55 89 93 109 65 33
112 43 207 40 80 -2 105 -7 158 -31z"/>
<path d="M9077 1945 c-149 -28 -304 -112 -371 -200 -205 -269 -60 -601 309
-707 105 -30 315 -32 415 -4 83 23 210 75 210 87 0 18 -79 179 -88 179 -5 0
-35 -11 -65 -25 -127 -59 -321 -71 -419 -28 -61 28 -136 98 -159 148 -67 147
60 313 267 348 77 13 226 -2 304 -32 l51 -19 44 89 45 89 -41 20 c-113 58
-349 84 -502 55z"/>
<path d="M6072 1623 l3 -288 32 -67 c58 -123 169 -208 320 -245 101 -25 314
-22 414 5 202 54 319 163 349 324 6 28 10 165 10 305 l0 254 -142 -3 -143 -3
-5 -285 c-6 -330 -5 -326 -108 -377 -51 -25 -67 -28 -162 -28 -88 0 -113 4
-155 23 -64 30 -113 77 -125 122 -5 19 -10 151 -10 293 l0 257 -141 0 -140 0
3 -287z"/>
<path d="M11122 1623 l3 -288 32 -67 c58 -123 169 -208 320 -245 101 -25 314
-22 414 5 164 44 265 119 322 240 l32 67 3 288 4 287 -146 0 -146 0 0 -283 0
-282 -25 -37 c-15 -23 -46 -47 -82 -65 -53 -25 -68 -28 -163 -28 -88 0 -113 4
-155 23 -64 30 -113 77 -125 122 -5 19 -10 151 -10 293 l0 257 -141 0 -140 0
3 -287z"/>
</g>
</svg>
